<svg width="219" height="218" viewBox="0 0 219 218" fill="none" xmlns="http://www.w3.org/2000/svg">
<rect x="0.75" y="0.25" width="217.5" height="217.5" rx="108.75" fill="#EDEEEE"/>
<path d="M131.986 110.724L87.7598 66.4982H152.256C154.14 66.4982 155.594 67.2975 156.62 68.8962C157.645 70.4949 157.665 72.2344 156.679 74.1149L139.234 105.564C138.333 107.202 137.167 108.472 135.735 109.373C134.304 110.274 133.054 110.724 131.986 110.724ZM88.6198 154.95C85.9171 154.95 83.6042 153.989 81.6812 152.066C79.7582 150.143 78.795 147.828 78.7918 145.122C78.7885 142.416 79.7516 140.103 81.6812 138.184C83.6108 136.264 85.9236 135.301 88.6198 135.294C91.3159 135.288 93.6304 136.251 95.5633 138.184C97.4961 140.117 98.4576 142.429 98.4478 145.122C98.438 147.815 97.4765 150.13 95.5633 152.066C93.6501 154.002 91.3356 154.963 88.6198 154.95ZM151.519 157.899L123.755 130.38H91.5682C87.9646 130.38 85.2209 128.845 83.3372 125.776C81.4535 122.706 81.3307 119.491 82.9687 116.13L88.1284 105.564L79.2832 85.6628L61.1014 67.481C60.2005 66.5801 59.75 65.4335 59.75 64.0412C59.75 62.6489 60.2005 61.5023 61.1014 60.6014C62.0023 59.7004 63.1489 59.25 64.5412 59.25C65.9335 59.25 67.0801 59.7004 67.981 60.6014L158.399 151.019C159.3 151.92 159.771 153.047 159.814 154.4C159.856 155.753 159.385 156.919 158.399 157.899C157.498 158.8 156.351 159.25 154.959 159.25C153.567 159.25 152.42 158.8 151.519 157.899ZM137.76 154.95C135.057 154.95 132.744 153.989 130.821 152.066C128.898 150.143 127.935 147.828 127.932 145.122C127.929 142.416 128.892 140.103 130.821 138.184C132.751 136.264 135.064 135.301 137.76 135.294C140.456 135.288 142.77 136.251 144.703 138.184C146.636 140.117 147.598 142.429 147.588 145.122C147.578 147.815 146.617 150.13 144.703 152.066C142.79 154.002 140.476 154.963 137.76 154.95Z" fill="#F9FAFB"/>
</svg>
