<svg width="25" height="25" viewBox="0 0 25 25" fill="none" xmlns="http://www.w3.org/2000/svg">
<path d="M0 0L0.378872 1.0419L0 2.13115V3.22041L1.51549 5.77779L0 8.33518V9.85066L1.51549 12.1239L0 14.3971V15.9126L1.51549 18.47L0 21.0274V24.2478L1.0419 23.8689L2.13115 24.2478H3.22041L5.77779 22.7323L8.33518 24.2478H9.85066L12.1239 22.7323L14.3971 24.2478H15.9126L18.47 22.7323L21.0274 24.2478H24.2478L23.8689 23.2059L24.2478 22.1166V21.0274L22.7323 18.47L24.2478 15.9126V14.3971L22.7323 12.1239L24.2478 9.85066V8.33518L22.7323 5.77779L24.2478 3.22041V0L23.2059 0.378872L22.1166 0H21.0274L18.47 1.51549L15.9126 0H14.3971L12.1239 1.51549L9.85066 0H8.33518L5.77779 1.51549L3.22041 0H0Z" fill="#EEEEEE"/>
<path d="M15.9126 0V5.11477L21.0274 0H15.9126ZM24.2478 3.22041L19.133 8.33518H24.2478V3.22041ZM0 8.33518H5.11477L0 3.22041V8.33518ZM3.22041 0L8.33518 5.11477V0H3.22041ZM8.33518 24.2478V19.133L3.22041 24.2478H8.33518ZM0 21.0274L5.11477 15.9126H0V21.0274ZM24.2478 15.9126H19.133L24.2478 21.0274V15.9126ZM21.0274 24.2478L15.9126 19.133V24.2478H21.0274Z" fill="#0052B4"/>
<path d="M0 0V2.13115L6.20402 8.33518H8.33518L0 0ZM9.85066 0V9.85066H0V14.3971H9.85066V24.2478H14.3971V14.3971H24.2478V9.85066H14.3971V0H9.85066ZM22.1166 0L15.9126 6.20402V8.33518L24.2478 0H22.1166ZM8.33518 15.9126L0 24.2478H2.13115L8.33518 18.0438V15.9126ZM15.9126 15.9126L24.2478 24.2478V22.1166L18.0438 15.9126H15.9126Z" fill="#D80027"/>
</svg>
