<svg width="219" height="219" viewBox="0 0 219 219" fill="none" xmlns="http://www.w3.org/2000/svg">
<rect x="0.75" y="0.75" width="217.5" height="217.5" rx="108.75" fill="#EDEEEE"/>
<path d="M172.692 58.5H47.1538C44.7261 58.5 42.3978 59.4644 40.6811 61.1811C38.9644 62.8978 38 65.2261 38 67.6538V151.346C38 153.774 38.9644 156.102 40.6811 157.819C42.3978 159.536 44.7261 160.5 47.1538 160.5H172.692C175.12 160.5 177.448 159.536 179.165 157.819C180.882 156.102 181.846 153.774 181.846 151.346V67.6538C181.846 65.2261 180.882 62.8978 179.165 61.1811C177.448 59.4644 175.12 58.5 172.692 58.5ZM47.1538 66.3462H172.692C173.039 66.3462 173.372 66.4839 173.617 66.7292C173.862 66.9744 174 67.307 174 67.6538V84.6538H45.8462V67.6538C45.8462 67.307 45.9839 66.9744 46.2292 66.7292C46.4744 66.4839 46.807 66.3462 47.1538 66.3462ZM172.692 152.654H47.1538C46.807 152.654 46.4744 152.516 46.2292 152.271C45.9839 152.026 45.8462 151.693 45.8462 151.346V92.5H174V151.346C174 151.693 173.862 152.026 173.617 152.271C173.372 152.516 173.039 152.654 172.692 152.654ZM160.923 135.654C160.923 136.694 160.51 137.692 159.774 138.428C159.038 139.164 158.04 139.577 157 139.577H136.077C135.036 139.577 134.039 139.164 133.303 138.428C132.567 137.692 132.154 136.694 132.154 135.654C132.154 134.613 132.567 133.616 133.303 132.88C134.039 132.144 135.036 131.731 136.077 131.731H157C158.04 131.731 159.038 132.144 159.774 132.88C160.51 133.616 160.923 134.613 160.923 135.654ZM119.077 135.654C119.077 136.694 118.664 137.692 117.928 138.428C117.192 139.164 116.194 139.577 115.154 139.577H104.692C103.652 139.577 102.654 139.164 101.918 138.428C101.183 137.692 100.769 136.694 100.769 135.654C100.769 134.613 101.183 133.616 101.918 132.88C102.654 132.144 103.652 131.731 104.692 131.731H115.154C116.194 131.731 117.192 132.144 117.928 132.88C118.664 133.616 119.077 134.613 119.077 135.654Z" fill="#F7F7F7"/>
</svg>
