<svg width="218" height="219" viewBox="0 0 218 219" fill="none" xmlns="http://www.w3.org/2000/svg">
<path d="M109 0.75C49.0359 0.75 0.25 49.5359 0.25 109.5C0.25 169.464 49.0359 218.25 109 218.25C168.964 218.25 217.75 169.464 217.75 109.5C217.75 49.5359 168.964 0.75 109 0.75ZM121.182 157.177C118.876 158.851 116.393 160.602 113.7 162.406C112.315 163.355 110.674 163.862 108.995 163.862C107.315 163.862 105.675 163.355 104.289 162.406C83.7418 148.457 74.8431 138.878 69.9389 132.913C59.4822 120.171 54.4734 107.085 54.6198 92.9156V92.581C54.6315 92.1731 54.7624 91.7775 54.9961 91.4431C55.2299 91.1086 55.5565 90.8499 55.9355 90.6987C56.3146 90.5475 56.7295 90.5105 57.1293 90.5923C57.5291 90.6741 57.8963 90.871 58.1855 91.1589L121.423 154.004C121.637 154.217 121.803 154.474 121.909 154.758C122.015 155.041 122.058 155.344 122.035 155.646C122.012 155.948 121.924 156.241 121.777 156.505C121.629 156.77 121.427 156.999 121.182 157.177ZM156.735 165.606C155.166 167.173 153.039 168.054 150.822 168.054C148.604 168.054 146.477 167.173 144.908 165.606L52.8892 73.5864C51.3866 72.0048 50.5613 69.8988 50.5892 67.7174C50.6171 65.5361 51.4961 63.4519 53.0387 61.9093C54.5813 60.3667 56.6654 59.4878 58.8468 59.4598C61.0282 59.4319 63.1342 60.2572 64.7158 61.7598L156.735 153.779C158.303 155.347 159.185 157.474 159.186 159.691C159.187 161.909 158.307 164.036 156.74 165.606H156.735ZM149.363 131.297C149.185 131.538 148.957 131.737 148.693 131.881C148.43 132.024 148.139 132.108 147.84 132.126C147.541 132.145 147.241 132.097 146.962 131.988C146.683 131.878 146.432 131.708 146.226 131.491L81.3942 67.0718C81.0988 66.7808 80.8965 66.4086 80.8131 66.0024C80.7297 65.5961 80.7689 65.1743 80.9258 64.7904C81.0827 64.4066 81.3502 64.078 81.6943 63.8465C82.0384 63.615 82.4435 63.4911 82.8582 63.4904H83.6686C94.3344 63.4904 101.968 69.0534 106.731 74.1667C107.021 74.48 107.373 74.7299 107.764 74.9008C108.156 75.0718 108.578 75.16 109.005 75.16C109.432 75.16 109.855 75.0718 110.246 74.9008C110.637 74.7299 110.989 74.48 111.28 74.1667C116.043 69.0534 123.676 63.4904 134.342 63.4904C150.189 63.4904 163.213 76.7025 163.375 92.9418C163.511 106.499 158.92 119.068 149.363 131.297Z" fill="#D3D3D3" fill-opacity="0.32"/>
</svg>
